<?xml version="1.0" encoding="UTF-8"?>

<svg version="1.1" id="Layer_1" xmlns="http://www.w3.org/2000/svg" xmlns:xlink="http://www.w3.org/1999/xlink" x="0px" y="0px" width="148" height="91"  viewBox="0 0 148 91" enable-background="new 0 0 170.1 113.4" xml:space="preserve">

	<g fill="none" fill-rule="evenodd">
		<path fill="#FFF" d="M0 0h148v91H0z"/>
		<path d="M87.658 62.907c-.46 0-.79.295-.992.885-.202.589-.303 1.56-.303 2.912 0 2.368.413 3.552 1.24 3.552.468 0 .804-.278 1.006-.834.201-.555.302-1.485.302-2.79 0-1.382-.094-2.348-.282-2.898-.189-.551-.512-.827-.971-.827zM83.9 78.403c0 .827 1.428 1.24 4.285 1.24 1.394 0 2.462-.082 3.203-.245.51-.106.855-.234 1.038-.382.183-.15.274-.368.274-.656 0-.452-.327-.74-.98-.865-.857-.153-1.977-.23-3.362-.23-1.626 0-2.775.086-3.448.26-.674.172-1.01.465-1.01.878zm48.002-14.758a1.88 1.88 0 00-.952.266 1.793 1.793 0 00-.693.684c-.212.385-.351 1.095-.418 2.133h4.054c-.03-1.008-.169-1.734-.419-2.175-.346-.606-.87-.908-1.572-.908zm11.001 22.877l-.825-1.274c.429-.046.759-.263.759-.785 0-.554-.324-.824-1.01-.824h-1.117v2.883h.45v-1.24h.475l.786 1.24h.482zm.8-1.452c0 1.208-.886 2.119-2.029 2.119-1.156 0-2.04-.911-2.04-2.119 0-1.18.884-2.09 2.04-2.09 1.143 0 2.028.91 2.028 2.09zm.449 0c0-1.392-1.13-2.453-2.478-2.453-1.354 0-2.49 1.061-2.49 2.453 0 1.419 1.136 2.482 2.49 2.482a2.461 2.461 0 002.478-2.482zm-5.787-16.498c0-2.334-.577-4.157-1.731-5.468-1.155-1.311-2.76-1.966-4.819-1.966-2.154 0-3.813.71-4.977 2.132-1.116 1.355-1.673 3.107-1.673 5.26 0 2.45.73 4.365 2.193 5.748 1.153 1.095 2.644 1.643 4.472 1.643 3.395 0 5.501-1.729 6.319-5.187h-3.145c-.116.7-.294 1.205-.535 1.513-.49.606-1.197.908-2.12.908-.904 0-1.563-.346-1.976-1.038a3.547 3.547 0 01-.448-1.153c-.086-.422-.14-1.042-.158-1.858h8.583c.01-.298.015-.476.015-.534zm-14.23 4.467h-.148c-.433 0-.711-.084-.837-.252-.125-.167-.187-.544-.187-1.13V61.568h-6.279v2.436h.393c.548 0 .882.086 1.002.26.121.172.18.662.18 1.469v5.922c0 .577-.076.951-.23 1.125-.154.172-.486.258-.995.258h-.35v2.378h7.45v-2.378zm-8.22-17.29h-17.24v5.818h2.396c.048-1.345 1.024-2.385 1.572-2.75.414-.278 1.058-.422 1.934-.432v12.133c0 .932-.02 1.496-.058 1.693a.573.573 0 01-.318.425c-.337.153-.614.24-1.72.26v2.521h9.63v-2.522c-1.117-.028-1.389-.12-1.706-.274a.57.57 0 01-.332-.432c-.039-.201-.058-.768-.058-1.7V58.385c.712.01 1.26.099 1.645.267.384.168.73.468 1.038.9.28.394.784.958.823 2.015h2.395v-5.818zM96.164 70.51h6.321V67.3h-6.32v3.21zm-1.515-7.644c-.452.539-.678 1.043-.678 1.513 0 .481.16.884.483 1.21.322.327.719.491 1.19.491.346 0 .669-.096.967-.288.548-.355.822-.97.822-1.845 0-.739-.216-1.364-.649-1.874-.558-.662-1.318-.993-2.28-.993-.51 0-.964.094-1.363.28-.399.188-.887.536-1.464 1.045-.73-.518-1.373-.872-1.926-1.059-.553-.187-1.228-.275-2.027-.28-1.633-.012-2.962.389-3.982 1.167-1.289.99-1.933 2.469-1.933 4.438 0 .806.11 1.5.332 2.081.221.582.64 1.266 1.255 2.054-.78.413-1.318.824-1.616 1.232-.298.408-.447.934-.447 1.578 0 .625.14 1.158.418 1.6.28.44.76.897 1.443 1.368-.76.26-1.299.567-1.616.922-.317.356-.476.831-.476 1.427 0 1.911 2.145 2.867 6.435 2.867 2.962 0 4.953-.307 5.972-.922a3.87 3.87 0 001.385-1.492c.337-.629.505-1.322.505-2.082 0-1.249-.375-2.204-1.126-2.867-.74-.633-1.928-.951-3.563-.951-.23 0-.77.005-1.616.014h-.807c-1.626 0-2.676-.067-3.153-.201-.475-.135-.714-.432-.714-.894 0-.2.082-.46.245-.777 1.049.345 1.924.518 2.627.518 1.577 0 2.942-.398 4.097-1.196.615-.432 1.103-1.035 1.464-1.808.36-.773.541-1.612.541-2.515a6.17 6.17 0 00-.195-1.628c-.13-.47-.359-.98-.685-1.527.625-.634 1.125-.95 1.5-.95.193 0 .404.114.635.344zM80.14 73.04c-.443 0-.734-.088-.873-.266-.14-.178-.21-.55-.21-1.117V66.31l-.194-2.514a3.058 3.058 0 00-.728-1.42c-.741-.797-1.823-1.196-3.246-1.196-.943 0-1.813.208-2.612.62-.625.327-1.294.966-2.005 1.916V61.57h-5.73v2.378h.19c.443 0 .734.09.873.267.14.178.21.55.21 1.117v6.325c0 .567-.07.94-.21 1.117-.14.178-.43.266-.873.266h-.002v2.378h7.014v-2.378c-.424 0-.703-.088-.837-.266-.135-.178-.202-.55-.202-1.117v-4.683c0-1.018.16-1.796.483-2.334.322-.538.786-.807 1.392-.807 1.058 0 1.587.826 1.587 2.478v5.346c0 .567-.068.94-.202 1.117-.135.178-.413.266-.836.266h.001v2.378h7.008v-2.378h.002zM64.194 68.5c0-2.334-.65-4.154-1.948-5.46-1.308-1.316-3.068-1.974-5.28-1.974-2.202 0-3.962.658-5.28 1.973-1.299 1.298-1.947 3.08-1.947 5.347 0 2.392.648 4.24 1.947 5.547 1.298 1.326 3.063 1.988 5.295 1.988 2.212 0 3.967-.662 5.265-1.988 1.299-1.307 1.948-3.117 1.948-5.433zm-14.9-4.092c0-1.133-.355-1.997-1.067-2.593-.51-.423-1.14-.635-1.89-.635-.635 0-1.193.133-1.674.397-.48.264-1.004.728-1.572 1.39V61.57H36.86v2.378h.692c.442 0 .733.09.873.267.14.178.21.55.21 1.117v6.325c0 .567-.07.94-.21 1.117-.14.178-.43.266-.873.266h-.248v2.378h7.514v-2.378h-.182c-.452 0-.75-.088-.895-.266-.144-.178-.216-.55-.216-1.117v-4.38c0-1.21.194-2.21.584-2.997.39-.788.883-1.182 1.479-1.182.182 0 .423.077.721.23-.442.193-.762.428-.96.707-.197.278-.295.638-.295 1.08 0 .48.144.923.433 1.326.365.5.865.749 1.5.749.693 0 1.25-.253 1.674-.763.423-.51.634-1.182.634-2.018zm-13.261 4.467h-2.366v1.297c0 1.201-.063 2.017-.188 2.45-.125.432-.356.648-.692.648-.289 0-.505-.164-.65-.49-.095-.24-.144-.758-.144-1.556v-7.277h2.886v-2.378h-2.886v-5.374H29.08c-.26 3.381-1.385 5.235-3.376 5.562v2.19h1.458v6.542c0 1.134.04 1.934.122 2.4.082.465.267.929.555 1.39.702 1.143 1.924 1.714 3.665 1.714 1.682 0 2.924-.538 3.722-1.613.317-.423.531-.875.642-1.355.11-.48.166-1.177.166-2.09v-2.06zm-10.37.706c0-2.036-.679-3.611-2.035-4.726-.606-.49-1.352-.9-2.236-1.232-.885-.331-2.328-.737-4.329-1.218-.875-.21-1.485-.468-1.831-.77-.347-.303-.52-.733-.52-1.29 0-.643.217-1.177.65-1.6.461-.45 1.12-.677 1.976-.677 1.308 0 2.4.365 3.274 1.095.482.404 1.535 1.432 1.689 2.373h2.438v-5.348H22.53l-.533.727c-.876-.634-1.69-1.068-2.446-1.303-.755-.235-1.71-.354-2.863-.354-2.501 0-4.406.682-5.713 2.047-1 1.037-1.5 2.449-1.5 4.236 0 1.671.523 3.05 1.572 4.135.952.971 3.034 1.826 6.247 2.565 1.125.26 1.906.574 2.344.944.438.37.656.9.656 1.593 0 .72-.269 1.294-.808 1.72-.538.428-1.269.643-2.192.643-1.337 0-2.491-.48-3.463-1.441-.5-.49-1.529-1.933-1.702-2.904H9.75v6.895h2.163l.693-1.455c.683.528 1.39.907 2.12 1.137 1.318.414 2.501.62 3.55.62.827 0 1.74-.13 2.74-.388 1.135-.288 2.054-.76 2.756-1.413 1.26-1.172 1.89-2.708 1.89-4.611zm92.135-11.6c0 .702.236 1.29.707 1.766.471.475 1.054.713 1.746.713.673 0 1.248-.24 1.724-.72s.714-1.057.714-1.73a2.34 2.34 0 00-.721-1.714 2.361 2.361 0 00-1.731-.72c-.664 0-1.236.237-1.717.713-.481.475-.722 1.04-.722 1.693zM.001 91h148V43h-148v48zm142.387-6.556c0-.383-.33-.442-.634-.442h-.595v.917h.469c.397 0 .76-.02.76-.475zM58.474 64.646c.283.716.425 2.001.425 3.854 0 1.816-.14 3.103-.418 3.862-.27.702-.774 1.052-1.515 1.052-.731 0-1.236-.358-1.515-1.073-.279-.716-.418-2.02-.418-3.913 0-1.786.14-3.05.418-3.79.27-.71.774-1.066 1.515-1.066.721 0 1.224.358 1.508 1.074z" fill="#FF5308"/>
		<path d="M113.398 20.036c0 2.912-1.265 5.824-4.565 5.824-3.3 0-4.566-2.912-4.566-5.824 0-2.911 1.265-5.823 4.566-5.823 3.3 0 4.565 2.912 4.565 5.823zm-38.943-3.131c0 1.785-1.155 2.444-2.75 2.444h-3.439v-5.026h3.439c1.567 0 2.75.74 2.75 2.582zm63.172 12.938h-5.254l-6.82-12.224h-.055v12.224h-4.812V10.23h5.253l6.82 12.086h.055V10.23h4.813v19.613zm-28.794.412c-6.189 0-9.681-4.533-9.681-10.219 0-5.686 3.492-10.219 9.68-10.219 6.189 0 9.681 4.533 9.681 10.22 0 5.685-3.492 10.218-9.68 10.218zm-19.884 0c-4.51 0-8.5-1.978-8.526-7.005h5.115c.11 2.308 1.54 3.05 3.713 3.05 1.54 0 3.135-.55 3.135-2.005 0-1.731-2.805-2.061-5.637-2.858-2.806-.796-5.749-2.06-5.749-5.659 0-4.285 4.318-5.96 8.004-5.96 3.905 0 7.838 1.895 7.865 6.318h-5.115c.083-1.786-1.595-2.363-3.163-2.363-1.1 0-2.475.385-2.475 1.675 0 1.512 2.833 1.786 5.693 2.583 2.833.797 5.693 2.115 5.693 5.66 0 4.97-4.235 6.564-8.553 6.564zm-16.475-6.95h-4.208v6.538h-5.115V10.23h9.323c3.658 0 7.096 1.675 7.096 6.317 0 4.863-2.777 6.759-7.096 6.759zm-12.413 6.538h-4.813V14.955h-.055l-4.125 14.888h-3.905l-4.126-14.888h-.055v14.888H38.17V10.23h7.536l3.383 13.076h.055l3.383-13.076h7.535v19.613zm-30.377 0h5.115V10.23h-5.115v19.613zm-10.945.412c-4.51 0-8.498-1.978-8.526-7.005h5.116c.11 2.308 1.54 3.05 3.713 3.05 1.54 0 3.135-.55 3.135-2.005 0-1.731-2.805-2.061-5.638-2.858-2.805-.796-5.748-2.06-5.748-5.659 0-4.285 4.318-5.96 8.003-5.96 3.905 0 7.838 1.895 7.866 6.318h-5.116c.083-1.786-1.595-2.363-3.162-2.363-1.1 0-2.476.385-2.476 1.675 0 1.512 2.833 1.786 5.693 2.583 2.833.797 5.693 2.115 5.693 5.66 0 4.97-4.235 6.564-8.553 6.564zM0 39h148V0H0v39z" fill="#000"/>
	</g>
</svg>